<svg width="1080" height="1080" viewBox="0 0 1080 1080" fill="none" xmlns="http://www.w3.org/2000/svg">
<g clip-path="url(#clip0_703_6)">
<path d="M767.96 625.24C759.15 625.77 757.32 630.6 758.49 635.86C759.41 640.02 767.76 643.66 774.19 644.64C781.81 645.79 788.28 648.56 797.05 653.18C805.82 657.8 808.05 662.8 815.76 664.27C824.3 665.88 831.46 652.49 822 643.94C813.79 636.54 802.14 632.63 792.2 630.32C782.26 628.01 775.58 624.74 767.96 625.24Z" fill="#8C4819" stroke="#1F1F1F" stroke-width="4.5" stroke-linecap="round" stroke-linejoin="round"/>
<path d="M796.59 610.24C781.59 606.1 764.08 605.46 754.1 608.16C745.56 610.47 744.86 619.48 749.02 622.94C752.43 625.78 762.88 625.94 767.96 625.25C776.31 624.11 798.67 632.18 806.96 638.41C815.25 644.64 825.9 640.72 826.13 631.48C826.36 622.24 816.68 615.73 796.59 610.24Z" fill="#8C4819" stroke="#1F1F1F" stroke-width="4.5" stroke-linecap="round" stroke-linejoin="round"/>
<path d="M797.62 590.66C782.62 586.52 765.12 585.89 755.13 588.59C746.59 590.9 745.9 599.9 750.05 603.37C753.46 606.21 763.91 606.37 768.99 605.67C777.34 604.54 799.7 612.6 807.99 618.84C816.28 625.08 826.92 621.15 827.15 611.91C827.38 602.67 817.72 596.24 797.62 590.66Z" fill="#8C4819" stroke="#1F1F1F" stroke-width="4.5" stroke-linecap="round" stroke-linejoin="round"/>
<path d="M776.27 484.65V657.42" stroke="#1F1F1F" stroke-width="4.5" stroke-linecap="round" stroke-linejoin="round"/>
<path d="M767.76 130.86L814.66 274.45L965.72 274.69C981.54 274.69 988.11 294.94 975.33 304.25L853.26 393.25L899.71 536.99C904.58 552.04 887.37 564.54 874.57 555.26L752.22 466.66L629.87 555.24C617.06 564.52 599.87 552.02 604.72 536.97L651.18 393.24L529.07 304.24C516.3 294.93 522.87 274.7 538.68 274.68L689.74 274.44L736.65 130.85C741.59 115.83 762.85 115.83 767.76 130.86Z" fill="#FFDF99" stroke="#FFDF99" stroke-width="4.5" stroke-miterlimit="10"/>
<path d="M101.49 716.24C126.13 669.69 186.01 580.45 226.19 551.35C266.37 522.25 307.94 530.57 345.35 547.19C382.76 563.81 407.7 573.52 407.7 573.52C407.7 573.52 481.14 559.66 528.25 558.28C575.36 556.9 598.91 574.91 629.4 635.87C659.89 696.83 679.28 731.48 690.4 757.8C701.52 784.12 672.74 822.93 638.4 846.8C588.74 881.41 551.47 879.71 551.47 879.71L558.73 972.54H169.38L213.72 831.24C213.72 831.24 181.85 825.7 140.28 797.99C104.67 774.24 89.07 739.74 101.49 716.24Z" fill="#C2E7FF" stroke="#C2E7FF" stroke-width="4.5" stroke-miterlimit="10"/>
<path d="M299.97 347.62C318.68 327.87 343.62 321.62 365.1 334.11C385.01 345.67 385.53 369.44 379.3 386.11C376.05 394.76 369.3 413.47 346.04 424.56C324.04 435.04 296.51 429.06 286.46 403.77C279.01 384.98 283.61 364.89 299.97 347.62Z" fill="#3C4043" stroke="#191C1E" stroke-width="4.5" stroke-linecap="round" stroke-linejoin="round"/>
<path d="M299.97 347.62C283.16 364.43 255.97 367.71 238.31 357.62C218.46 346.34 212.59 324.3 219.31 303.24C225.89 282.45 241.14 269.64 260.88 266.17C280.62 262.7 298.29 266.17 310.41 283.17C322.15 299.68 320.07 327.53 299.97 347.62Z" fill="#3C4043" stroke="#191C1E" stroke-width="4.5" stroke-linecap="round" stroke-linejoin="round"/>
<path d="M245.24 271.41C221.15 282.16 191.55 277.3 179.08 258.94C167.89 242.47 169.08 217.27 180.81 200.74C197.81 176.84 224.46 167.84 251.13 176.84C276.66 185.46 286.13 213.22 277.8 238.16C272.31 254.64 264.64 262.75 245.24 271.41Z" fill="#3C4043" stroke="#191C1E" stroke-width="4.5" stroke-linecap="round" stroke-linejoin="round"/>
<path d="M215.8 175.11C206.09 176.41 185.31 157.44 175.96 142.9C166.61 128.36 163.96 120.78 168.34 118.3C175.62 114.15 193.26 108.58 218.57 108.3C245.57 107.95 262.22 116.611 264.29 119.731C266.36 122.851 261.87 135.32 250.78 147.79C240.47 159.35 226.19 173.73 215.8 175.11Z" fill="#3C4043" stroke="#191C1E" stroke-width="4.5" stroke-linecap="round" stroke-linejoin="round"/>
<path d="M692.65 767.44C691.4 759.5 685.98 757.77 675.82 757.29C651.11 756.14 624.82 764.68 585.75 789.85C551.9 811.68 524.09 842.97 524.09 857.52C524.09 872.07 534.51 878.7 551.47 879.69C551.47 879.69 588.74 881.39 638.4 846.78C668.7 825.66 694.64 792.93 692.65 767.44Z" fill="#1F1F1F" stroke="#1F1F1F" stroke-width="4.5" stroke-linecap="round" stroke-linejoin="round"/>
<path d="M818.99 589.4C798.86 576.19 777.92 565.04 768.19 564.23C757.1 563.31 752.95 572.78 760.57 579.01C766.72 584.01 772.11 587.79 772.11 587.79C766.11 591.02 765.6 600.79 772.11 606.54C786.35 619.18 809.11 641.39 809.11 641.39C807.73 676.03 831.26 707.87 831.26 707.87C831.26 707.87 829.88 728.66 816.02 759.14C803.14 787.49 785.08 818.72 751.36 821.95C710.84 825.84 692.24 795.16 670.53 766.07C668.76 763.69 666.83 760.75 664.81 757.44C643.13 759.01 619.08 768.38 585.81 789.85C575.954 796.238 566.594 803.362 557.81 811.16L559.28 813.64C574.07 838.44 603.34 869.95 636.68 894.74C687.22 932.34 743.53 926.66 775.9 913.4C824.39 893.54 859.3 850.69 874.28 792.86C893.88 716.81 873.46 625.15 818.99 589.4Z" fill="#8C4819" stroke="#1F1F1F" stroke-width="4.5" stroke-linecap="round" stroke-linejoin="round"/>
<path d="M528.25 685.71L524.1 857.52" stroke="#1F1F1F" stroke-width="4.5" stroke-linecap="round" stroke-linejoin="round"/>
<path d="M235.89 761.24C221.51 751.76 192.89 736.99 168.69 727.29C146.95 718.6 102.87 708.58 97.69 727.97C94.42 750.27 110.26 777.97 140.3 797.97C176.81 822.3 207.21 829.82 213.74 831.22L235.89 761.24Z" fill="#1F1F1F" stroke="#1F1F1F" stroke-width="4.5" stroke-linecap="round" stroke-linejoin="round"/>
<path d="M264.99 669.77L235.89 761.22" stroke="#1F1F1F" stroke-width="4.5" stroke-linecap="round" stroke-linejoin="round"/>
<path d="M522.01 451.88C518.2 447.73 514.39 439.76 516.47 429.02C518.55 418.28 523.05 398.88 513.7 380.53C504.35 362.18 483.91 346.58 463.47 342.08C443.03 337.58 422.6 339.65 406.32 351.43C389.08 363.89 378.01 379.31 375.49 402.35C373.06 424.52 375.83 436.35 382.07 456.04C388.31 475.73 391.07 487.22 384.49 503.5C377.91 519.78 360.94 536.4 345.35 547.14C337.631 543.667 329.71 540.662 321.63 538.14C323.83 559.19 344.28 594.66 391.08 599.44C426.91 603.1 465.82 578.97 487.19 561.44C477.01 562.59 459.89 565.02 459.89 565.02C459.89 565.02 451.17 555.78 449.96 532.92C448.96 513.18 454.47 500.36 454.47 500.36C454.47 500.36 460.01 502.09 472.13 502.09C484.25 502.09 495 499.32 500.54 488.58C506.08 477.84 510.54 462.95 510.54 462.95C513.123 462.761 515.677 462.295 518.16 461.56C523.75 459.85 525.82 456.04 522.01 451.88Z" fill="#8C4819" stroke="#1F1F1F" stroke-width="4.5" stroke-linecap="round" stroke-linejoin="round"/>
<path d="M229.53 781.3L235.89 761.22C221.51 751.74 192.89 736.97 168.69 727.27C161.416 724.408 153.947 722.069 146.34 720.27C129.07 754.82 100.68 819.8 109.8 858.88C119.5 900.45 149.8 922.34 182.2 931.28L229.53 781.3Z" fill="#8C4819" stroke="#1F1F1F" stroke-width="4.5" stroke-linecap="round" stroke-linejoin="round"/>
<path d="M519.36 403.62C519.212 395.598 517.279 387.711 513.7 380.53C504.35 362.17 483.91 346.58 463.47 342.08C443.03 337.58 422.6 339.65 406.32 351.43C389.08 363.89 378.01 379.31 375.49 402.35C373.06 424.52 375.83 436.35 382.07 456.04C385.37 466.49 387.68 474.61 388.17 482.35C401.05 486.72 421.17 485.14 431.95 475.09C439.95 467.57 443.42 448.24 440.26 433.18C437.2 418.54 443.38 404.43 453.77 401.31C466.83 397.39 472.83 409.51 475.13 416.44C477.43 423.37 483.91 426.13 495.46 422.9C505.07 420.24 513.95 411.52 519.36 403.62Z" fill="#3C4043" stroke="#191C1E" stroke-width="4.5" stroke-linecap="round" stroke-linejoin="round"/>
<path d="M505.947 435.045C506.224 433.479 506.007 432.131 505.463 432.035C504.919 431.939 504.254 433.131 503.978 434.698C503.701 436.264 503.918 437.612 504.462 437.708C505.006 437.804 505.671 436.612 505.947 435.045Z" fill="#1F1F1F" stroke="#1F1F1F" stroke-width="4.5" stroke-linecap="round" stroke-linejoin="round"/>
<path d="M776.27 691.36C785.642 691.36 793.24 683.762 793.24 674.39C793.24 665.018 785.642 657.42 776.27 657.42C766.898 657.42 759.3 665.018 759.3 674.39C759.3 683.762 766.898 691.36 776.27 691.36Z" fill="white" stroke="#1F1F1F" stroke-width="4.5" stroke-linecap="round" stroke-linejoin="round"/>
<path d="M772.07 587.79C778.31 584.55 782.47 587.33 789.39 592.18C796.31 597.03 835.12 625.43 835.12 625.43" stroke="#1F1F1F" stroke-width="4.5" stroke-linecap="round" stroke-linejoin="round"/>
<path d="M776.27 554.81V586.4" stroke="#1F1F1F" stroke-width="4.5" stroke-linecap="round" stroke-linejoin="round"/>
<path d="M767.76 130.86L814.67 274.46L965.73 274.69" stroke="#1F1F1F" stroke-width="4.5" stroke-linecap="round" stroke-linejoin="round"/>
</g>
<defs>
<clipPath id="clip0_703_6">
<rect width="889.33" height="868.77" fill="white" transform="translate(95 106)"/>
</clipPath>
</defs>
</svg>
